ffmpeg started on 2016-12-07 at 01:46:10
Report written to "Output/x264/results/ffmpeg/crowd_run_2160p50medium13000k.log"
Command line:
Tools/ffmpeg/ffmpeg -benchmark -y -i Input/y4m/crowd_run_2160p50.y4m -c:v libx264 -preset medium -b:v 13000k -an Output/x264/encoded/crowd_run_2160p50medium13000k.mkv
ffmpeg version N-82227-gdb23fde Copyright (c) 2000-2016 the FFmpeg developers
  built with gcc 5.4.0 (Ubuntu 5.4.0-6ubuntu1~16.04.2) 20160609
  configuration: --prefix=/home/jaroslav/ffmpeg_build --pkg-config-flags=--static --extra-cflags=-I/home/jaroslav/ffmpeg_build/include --extra-ldflags=-L/home/jaroslav/ffmpeg_build/lib --bindir=/home/jaroslav/bin --enable-gpl --enable-libass --enable-libfdk-aac --enable-libfreetype --enable-libmp3lame --enable-libopus --enable-libtheora --enable-libvorbis --enable-libvpx --enable-libx264 --enable-libx265 --enable-nvenc --enable-libmfx --enable-libxvid --enable-libgsm --enable-libopencore-amrnb --enable-version3 --enable-nonfree
  libavutil      55. 35.100 / 55. 35.100
  libavcodec     57. 66.101 / 57. 66.101
  libavformat    57. 57.100 / 57. 57.100
  libavdevice    57.  2.100 / 57.  2.100
  libavfilter     6. 66.100 /  6. 66.100
  libswscale      4.  3.100 /  4.  3.100
  libswresample   2.  4.100 /  2.  4.100
  libpostproc    54.  2.100 / 54.  2.100
Input #0, yuv4mpegpipe, from 'Input/y4m/crowd_run_2160p50.y4m':
  Duration: 00:00:10.00, start: 0.000000, bitrate: 4976642 kb/s
    Stream #0:0: Video: rawvideo (I420 / 0x30323449), yuv420p(progressive), 3840x2160, SAR 1:1 DAR 16:9, 50 fps, 50 tbr, 50 tbn, 50 tbc
[libx264 @ 0x3c371c0] using SAR=1/1
[libx264 @ 0x3c371c0] using cpu capabilities: MMX2 SSE2Fast SSSE3 SSE4.2 AVX FMA3 AVX2 LZCNT BMI2
[libx264 @ 0x3c371c0] profile High, level 5.2
[libx264 @ 0x3c371c0] 264 - core 148 - H.264/MPEG-4 AVC codec - Copyleft 2003-2016 - http://www.videolan.org/x264.html - options: cabac=1 ref=3 deblock=1:0:0 analyse=0x3:0x113 me=hex subme=7 psy=1 psy_rd=1.00:0.00 mixed_ref=1 me_range=16 chroma_me=1 trellis=1 8x8dct=1 cqm=0 deadzone=21,11 fast_pskip=1 chroma_qp_offset=-2 threads=6 lookahead_threads=1 sliced_threads=0 nr=0 decimate=1 interlaced=0 bluray_compat=0 constrained_intra=0 bframes=3 b_pyramid=2 b_adapt=1 b_bias=0 direct=1 weightb=1 open_gop=0 weightp=2 keyint=250 keyint_min=25 scenecut=40 intra_refresh=0 rc_lookahead=40 rc=abr mbtree=1 bitrate=13000 ratetol=1.0 qcomp=0.60 qpmin=0 qpmax=69 qpstep=4 ip_ratio=1.40 aq=1:1.00
Output #0, matroska, to 'Output/x264/encoded/crowd_run_2160p50medium13000k.mkv':
  Metadata:
    encoder         : Lavf57.57.100
    Stream #0:0: Video: h264 (libx264) (H264 / 0x34363248), yuv420p, 3840x2160 [SAR 1:1 DAR 16:9], q=-1--1, 13000 kb/s, 50 fps, 1k tbn, 50 tbc
    Metadata:
      encoder         : Lavc57.66.101 libx264
    Side data:
      cpb: bitrate max/min/avg: 0/0/13000000 buffer size: 0 vbv_delay: -1
Stream mapping:
  Stream #0:0 -> #0:0 (rawvideo (native) -> h264 (libx264))
Press [q] to stop, [?] for help
frame=    7 fps=0.0 q=0.0 size=       0kB time=00:00:00.00 bitrate=N/A speed=   0x    frame=   24 fps= 19 q=0.0 size=       0kB time=00:00:00.00 bitrate=N/A speed=   0x    frame=   40 fps= 19 q=0.0 size=       0kB time=00:00:00.00 bitrate=N/A speed=   0x    frame=   47 fps= 10 q=0.0 size=       0kB time=00:00:00.00 bitrate=N/A speed=   0x    frame=   52 fps= 10 q=32.0 size=       1kB time=-00:00:00.01 bitrate=N/A speed=N/A    frame=   55 fps=9.7 q=41.0 size=       1kB time=00:00:00.04 bitrate= 143.2kbits/s speed=0.00727x    frame=   58 fps=9.4 q=39.0 size=       1kB time=00:00:00.10 bitrate=  58.1kbits/s speed=0.0163x    frame=   64 fps=9.4 q=49.0 size=       1kB time=00:00:00.22 bitrate=  26.6kbits/s speed=0.0323x    frame=   72 fps=9.7 q=48.0 size=       1kB time=00:00:00.38 bitrate=  15.4kbits/s speed=0.0512x    frame=   78 fps=9.8 q=47.0 size=       1kB time=00:00:00.50 bitrate=  11.7kbits/s speed=0.063x    frame=   82 fps=9.7 q=47.0 size=       1kB time=00:00:00.58 bitrate=  10.1kbits/s speed=0.0686x    frame=   89 fps=9.8 q=47.0 size=       1kB time=00:00:00.72 bitrate=   8.1kbits/s speed=0.0795x    frame=   96 fps= 10 q=46.0 size=       1kB time=00:00:00.86 bitrate=   6.8kbits/s speed=0.0898x    frame=  101 fps= 10 q=46.0 size=       1kB time=00:00:00.96 bitrate=   6.1kbits/s speed=0.0947x    frame=  108 fps= 10 q=46.0 size=       1kB time=00:00:01.10 bitrate=   5.3kbits/s speed=0.103x    frame=  112 fps= 10 q=46.0 size=       1kB time=00:00:01.18 bitrate=   5.0kbits/s speed=0.106x    frame=  117 fps=9.9 q=46.0 size=       1kB time=00:00:01.28 bitrate=   4.6kbits/s speed=0.109x    frame=  125 fps= 10 q=45.0 size=       1kB time=00:00:01.44 bitrate=   4.1kbits/s speed=0.115x    frame=  133 fps= 10 q=45.0 size=       1kB time=00:00:01.60 bitrate=   3.7kbits/s speed=0.12x    frame=  140 fps= 10 q=45.0 size=       1kB time=00:00:01.74 bitrate=   3.4kbits/s speed=0.126x    frame=  145 fps= 10 q=45.0 size=       1kB time=00:00:01.84 bitrate=   3.2kbits/s speed=0.128x    frame=  149 fps= 10 q=45.0 size=       1kB time=00:00:01.92 bitrate=   3.1kbits/s speed=0.129x    frame=  156 fps= 10 q=45.0 size=       1kB time=00:00:02.06 bitrate=   2.8kbits/s speed=0.134x    frame=  162 fps= 10 q=45.0 size=       1kB time=00:00:02.18 bitrate=   2.7kbits/s speed=0.135x    frame=  168 fps= 10 q=45.0 size=       1kB time=00:00:02.30 bitrate=   2.6kbits/s speed=0.138x    frame=  173 fps= 10 q=45.0 size=       1kB time=00:00:02.40 bitrate=   2.4kbits/s speed=0.139x    frame=  180 fps= 10 q=44.0 size=       1kB time=00:00:02.54 bitrate=   2.3kbits/s speed=0.143x    frame=  185 fps= 10 q=44.0 size=       1kB time=00:00:02.64 bitrate=   2.2kbits/s speed=0.144x    frame=  190 fps= 10 q=44.0 size=       1kB time=00:00:02.74 bitrate=   2.1kbits/s speed=0.145x    frame=  195 fps= 10 q=44.0 size=       1kB time=00:00:02.84 bitrate=   2.1kbits/s speed=0.146x    frame=  201 fps= 10 q=44.0 size=    5167kB time=00:00:02.96 bitrate=14294.8kbits/s speed=0.147x    frame=  208 fps= 10 q=44.0 size=    5167kB time=00:00:03.10 bitrate=13649.4kbits/s speed=0.15x    frame=  213 fps= 10 q=44.0 size=    5167kB time=00:00:03.20 bitrate=13223.0kbits/s speed=0.151x    frame=  218 fps= 10 q=44.0 size=    5167kB time=00:00:03.30 bitrate=12822.5kbits/s speed=0.152x    frame=  225 fps= 10 q=44.0 size=    5167kB time=00:00:03.44 bitrate=12300.8kbits/s speed=0.153x    frame=  230 fps= 10 q=44.0 size=    5167kB time=00:00:03.54 bitrate=11953.4kbits/s speed=0.154x    frame=  236 fps= 10 q=44.0 size=    5167kB time=00:00:03.66 bitrate=11561.6kbits/s speed=0.156x    frame=  242 fps= 10 q=44.0 size=    5167kB time=00:00:03.78 bitrate=11194.6kbits/s speed=0.157x    frame=  245 fps= 10 q=44.0 size=    5167kB time=00:00:03.84 bitrate=11019.8kbits/s speed=0.156x    frame=  253 fps= 10 q=44.0 size=    5167kB time=00:00:04.00 bitrate=10579.1kbits/s speed=0.158x    frame=  260 fps= 10 q=44.0 size=    5167kB time=00:00:04.14 bitrate=10221.4kbits/s speed=0.16x    frame=  264 fps= 10 q=44.0 size=    5167kB time=00:00:04.22 bitrate=10027.7kbits/s speed=0.16x    frame=  268 fps=9.9 q=44.0 size=    5167kB time=00:00:04.30 bitrate=9841.2kbits/s speed=0.16x    frame=  273 fps=9.9 q=44.0 size=    5167kB time=00:00:04.40 bitrate=9617.6kbits/s speed=0.16x    frame=  279 fps= 10 q=44.0 size=    5167kB time=00:00:04.52 bitrate=9362.3kbits/s speed=0.161x    frame=  285 fps=9.9 q=44.0 size=    5167kB time=00:00:04.64 bitrate=9120.2kbits/s speed=0.161x    frame=  291 fps=9.9 q=44.0 size=    5167kB time=00:00:04.76 bitrate=8890.3kbits/s speed=0.162x    frame=  296 fps=9.6 q=41.0 size=    5167kB time=00:00:04.86 bitrate=8707.5kbits/s speed=0.158x    frame=  305 fps=9.7 q=44.0 size=    8259kB time=00:00:05.04 bitrate=13421.6kbits/s speed=0.161x    frame=  311 fps=9.7 q=44.0 size=    8259kB time=00:00:05.16 bitrate=13109.6kbits/s speed=0.162x    frame=  315 fps=9.7 q=44.0 size=    8259kB time=00:00:05.24 bitrate=12909.4kbits/s speed=0.162x    frame=  321 fps=9.7 q=44.0 size=    8259kB time=00:00:05.36 bitrate=12620.5kbits/s speed=0.163x    frame=  327 fps=9.7 q=44.0 size=    8259kB time=00:00:05.48 bitrate=12344.2kbits/s speed=0.163x    frame=  332 fps=9.7 q=44.0 size=    8259kB time=00:00:05.58 bitrate=12123.0kbits/s speed=0.162x    frame=  339 fps=9.7 q=44.0 size=    8259kB time=00:00:05.72 bitrate=11826.3kbits/s speed=0.163x    frame=  347 fps=9.7 q=44.0 size=    8259kB time=00:00:05.88 bitrate=11504.6kbits/s speed=0.164x    frame=  355 fps=9.7 q=44.0 size=    8259kB time=00:00:06.04 bitrate=11199.9kbits/s speed=0.164x    frame=  363 fps=9.7 q=44.0 size=    8259kB time=00:00:06.20 bitrate=10910.9kbits/s speed=0.165x    frame=  367 fps=9.6 q=44.0 size=    8259kB time=00:00:06.28 bitrate=10771.9kbits/s speed=0.165x    frame=  375 fps=9.7 q=44.0 size=    8259kB time=00:00:06.44 bitrate=10504.3kbits/s speed=0.166x    frame=  382 fps=9.7 q=44.0 size=    8259kB time=00:00:06.58 bitrate=10280.9kbits/s speed=0.167x    frame=  387 fps=9.7 q=44.0 size=    8259kB time=00:00:06.68 bitrate=10127.0kbits/s speed=0.167x    frame=  392 fps=9.7 q=44.0 size=    8259kB time=00:00:06.78 bitrate=9977.6kbits/s speed=0.167x    frame=  399 fps=9.7 q=44.0 size=    8259kB time=00:00:06.92 bitrate=9775.8kbits/s speed=0.168x    frame=  404 fps=9.7 q=44.0 size=    8259kB time=00:00:07.02 bitrate=9636.6kbits/s speed=0.168x    frame=  408 fps=9.6 q=44.0 size=    8259kB time=00:00:07.10 bitrate=9528.0kbits/s speed=0.168x    frame=  413 fps=9.6 q=44.0 size=    8259kB time=00:00:07.20 bitrate=9395.7kbits/s speed=0.168x    frame=  419 fps=9.7 q=44.0 size=    8259kB time=00:00:07.32 bitrate=9241.7kbits/s speed=0.169x    frame=  424 fps=9.6 q=44.0 size=    8259kB time=00:00:07.42 bitrate=9117.2kbits/s speed=0.169x    frame=  430 fps=9.7 q=44.0 size=    8259kB time=00:00:07.54 bitrate=8972.1kbits/s speed=0.17x    frame=  436 fps=9.7 q=44.0 size=    8259kB time=00:00:07.66 bitrate=8831.5kbits/s speed=0.17x    frame=  441 fps=9.7 q=44.0 size=    8259kB time=00:00:07.76 bitrate=8717.7kbits/s speed=0.17x    frame=  447 fps=9.7 q=44.0 size=    8259kB time=00:00:07.88 bitrate=8585.0kbits/s speed=0.17x    frame=  452 fps=9.7 q=44.0 size=    8259kB time=00:00:07.98 bitrate=8477.4kbits/s speed=0.171x    frame=  457 fps=9.7 q=44.0 size=    8259kB time=00:00:08.08 bitrate=8372.5kbits/s speed=0.171x    frame=  462 fps=9.7 q=44.0 size=    8259kB time=00:00:08.18 bitrate=8270.2kbits/s speed=0.171x    frame=  467 fps=9.7 q=44.0 size=   13398kB time=00:00:08.28 bitrate=13253.8kbits/s speed=0.171x    frame=  472 fps=9.7 q=44.0 size=   13398kB time=00:00:08.38 bitrate=13095.6kbits/s speed=0.172x    frame=  477 fps=9.7 q=44.0 size=   13398kB time=00:00:08.48 bitrate=12941.2kbits/s speed=0.172x    frame=  481 fps=9.6 q=44.0 size=   13398kB time=00:00:08.56 bitrate=12820.3kbits/s speed=0.171x    frame=  487 fps=9.6 q=44.0 size=   13398kB time=00:00:08.68 bitrate=12643.1kbits/s speed=0.172x    frame=  491 fps=9.6 q=44.0 size=   13398kB time=00:00:08.76 bitrate=12527.6kbits/s speed=0.172x    frame=  498 fps=9.7 q=44.0 size=   13398kB time=00:00:08.90 bitrate=12330.6kbits/s speed=0.173x    frame=  500 fps=8.9 q=-1.0 Lsize=   15890kB time=00:00:09.94 bitrate=13094.3kbits/s speed=0.178x    
video:15885kB audio:0kB subtitle:0kB other streams:0kB global headers:0kB muxing overhead: 0.029275%
bench: utime=195.868s
bench: maxrss=1863092kB
[libx264 @ 0x3c371c0] frame I:2     Avg QP:33.32  size:464210
[libx264 @ 0x3c371c0] frame P:126   Avg QP:42.80  size: 60111
[libx264 @ 0x3c371c0] frame B:372   Avg QP:44.90  size: 20869
[libx264 @ 0x3c371c0] consecutive B-frames:  0.8%  0.0%  0.0% 99.2%
[libx264 @ 0x3c371c0] mb I  I16..4: 12.6% 73.9% 13.5%
[libx264 @ 0x3c371c0] mb P  I16..4:  2.0%  6.8%  0.1%  P16..4: 33.4%  5.3%  2.8%  0.0%  0.0%    skip:49.6%
[libx264 @ 0x3c371c0] mb B  I16..4:  0.0%  0.2%  0.0%  B16..8: 40.7%  1.3%  0.1%  direct: 0.2%  skip:57.5%  L0:44.4% L1:55.1% BI: 0.5%
[libx264 @ 0x3c371c0] final ratefactor: 35.70
[libx264 @ 0x3c371c0] 8x8 transform intra:76.1% inter:93.8%
[libx264 @ 0x3c371c0] coded y,uvDC,uvAC intra: 35.2% 60.4% 22.6% inter: 4.7% 6.0% 0.1%
[libx264 @ 0x3c371c0] i16 v,h,dc,p: 37% 23%  7% 32%
[libx264 @ 0x3c371c0] i8 v,h,dc,ddl,ddr,vr,hd,vl,hu: 18% 11% 26%  8%  7%  9%  7%  8%  6%
[libx264 @ 0x3c371c0] i4 v,h,dc,ddl,ddr,vr,hd,vl,hu: 21% 16% 15%  9%  9%  9%  8%  8%  6%
[libx264 @ 0x3c371c0] i8c dc,h,v,p: 73%  9% 14%  3%
[libx264 @ 0x3c371c0] Weighted P-Frames: Y:1.6% UV:0.8%
[libx264 @ 0x3c371c0] ref P L0: 68.9%  9.5% 15.7%  5.8%  0.1%
[libx264 @ 0x3c371c0] ref B L0: 94.2%  4.9%  0.9%
[libx264 @ 0x3c371c0] ref B L1: 98.9%  1.1%
[libx264 @ 0x3c371c0] kb/s:13012.65
